<?xml version="1.0" encoding="UTF-8" standalone="no"?>
<svg
   preserveAspectRatio="xMidYMid"
   data-bbox="0 -0.059 29707.852 7979.56"
   viewBox="0 -0.059 1220.6824 1220.6917"
   height="48"
   width="48"
   shape-rendering="geometricPrecision"
   text-rendering="geometricPrecision"
   image-rendering="optimizeQuality"
   fill-rule="evenodd"
   clip-rule="evenodd"
   data-type="color"
   role="presentation"
   aria-hidden="true"
   aria-label=""
   version="1.1"
   id="svg25"
   sodipodi:docname="favicon.svg"
   inkscape:export-filename="favicon.svg"
   inkscape:export-xdpi="96"
   inkscape:export-ydpi="96"
   inkscape:version="1.3.2 (091e20e, 2023-11-25, custom)"
   xmlns:inkscape="http://www.inkscape.org/namespaces/inkscape"
   xmlns:sodipodi="http://sodipodi.sourceforge.net/DTD/sodipodi-0.dtd"
   xmlns="http://www.w3.org/2000/svg"
   xmlns:svg="http://www.w3.org/2000/svg">
  <defs
     id="defs25" />
  <sodipodi:namedview
     id="namedview25"
     pagecolor="#ffffff"
     bordercolor="#000000"
     borderopacity="0.25"
     inkscape:showpageshadow="false"
     inkscape:pageopacity="0.0"
     inkscape:pagecheckerboard="false"
     inkscape:deskcolor="#d1d1d1"
     showgrid="false"
     inkscape:zoom="9.4095084"
     inkscape:cx="34.220704"
     inkscape:cy="36.718178"
     inkscape:window-width="1920"
     inkscape:window-height="1009"
     inkscape:window-x="-8"
     inkscape:window-y="-8"
     inkscape:window-maximized="1"
     inkscape:current-layer="g25"
     showborder="false"
     borderlayer="false"
     inkscape:clip-to-page="false"
     labelstyle="default"
     showguides="true" />
  <g
     id="g25">
    <path
       d="m 610.32048,-0.059 c 337.11593,0 610.36652,273.27084 610.36652,610.34661 0,337.10984 -273.25059,610.34509 -610.36652,610.34509 -337.07296,0 -610.32513,-273.23525 -610.32513,-610.34509 0,-337.07577 273.25062,-610.34661 610.32513,-610.34661"
       fill="#2b2a29"
       data-color="1"
       id="path1"
       style="stroke-width:0.154201" />
    <path
       d="m 610.32048,96.001212 c -283.69758,0 -514.50995,230.715648 -514.50995,514.291058 0,283.57385 230.81237,514.27553 514.50995,514.27553 283.70383,0 514.51162,-230.70167 514.51162,-514.27552 0,-283.57386 -230.80779,-514.291058 -514.51162,-514.291058 m 0,1060.189078 c -300.98539,0 -545.89413,-244.87038 -545.89413,-545.89802 0,-301.02767 244.90874,-545.896418 545.89413,-545.896418 301.02843,0 545.93722,244.868738 545.93722,545.896418 0,301.02764 -244.90879,545.89802 -545.93722,545.89802"
       fill="#fefefe"
       fill-rule="nonzero"
       data-color="2"
       id="path2"
       style="stroke-width:0.154201" />
    <path
       d="m 943.77951,789.88599 -0.035,-353.20186 c 22.4704,-10.44693 38.1003,-33.02748 38.1003,-59.23065 0,-36.16107 -29.6617,-65.4638 -66.1903,-65.4638 -36.5254,0 -66.1686,29.30273 -66.1686,65.4638 0,27.71195 17.4383,51.30608 41.9602,60.88643 v 151.38351 l -154.68519,-0.0201 v -153.8285 h -0.0568 c 21.86982,-10.65271 37.03718,-32.91759 37.03718,-58.71842 0,-36.15643 -29.64634,-65.45915 -66.19027,-65.45915 -36.52396,0 -66.16877,29.30272 -66.16877,65.45915 0,25.80083 15.16736,48.06571 37.0587,58.71842 h -0.31223 V 589.66616 H 517.50938 V 436.88839 c 22.58586,-10.39585 38.28179,-33.0058 38.28179,-59.32503 0,-36.13943 -29.60793,-65.46227 -66.1319,-65.46227 -36.56543,0 -66.19026,29.3213 -66.19026,65.46227 0,25.56251 14.80472,47.62467 36.3626,58.42287 v 154.58518 h -74.66589 c -76.07187,0 -68.97144,8.93969 -67.68841,-68.16877 v -84.00393 c 22.63809,-10.41132 38.39087,-33.0414 38.39087,-59.36063 0,-36.15643 -29.66015,-65.47772 -66.16721,-65.47772 -36.54548,0 -66.15494,29.32129 -66.15494,65.47772 0,25.5099 14.73253,47.5504 36.25507,58.34859 v 152.79942 c -0.18745,43.99123 5.01071,56.56127 58.466,56.37249 h 141.56608 v 144.08103 c -21.66699,10.74556 -36.56545,32.85879 -36.56545,58.49869 0,36.14096 29.62942,65.45916 66.19026,65.45916 36.50705,0 66.13801,-29.3182 66.13801,-65.45916 0,-25.91226 -15.26721,-48.24832 -37.28146,-58.88556 V 645.67651 h 160.78379 v 143.8969 c -22.41991,10.50572 -37.88227,33.00581 -37.88227,59.12076 0,36.1394 29.58794,65.47773 66.13186,65.47773 36.54394,0 66.19028,-29.33833 66.19028,-65.47773 0,-26.26042 -15.71745,-48.89358 -38.29717,-59.30491 V 645.4707 h 156.34928 l -0.1813,142.59084 c -24.5972,9.54474 -42.1108,33.21006 -42.1108,60.94522 0,36.15489 29.6294,65.47774 66.1548,65.47774 36.5655,0 66.1735,-29.32285 66.1735,-65.47774 0,-26.13199 -15.4992,-48.63672 -37.847,-59.12077"
       fill="#fefefe"
       data-color="2"
       id="path3"
       style="stroke-width:0.154201" />
  </g>
</svg>
