<svg preserveAspectRatio="xMidYMid meet" data-bbox="0 -0.059 29707.852 7979.56" viewBox="0 -0.059 29707.852 7979.56" height="313.772" width="1168.18" xmlns="http://www.w3.org/2000/svg" shape-rendering="geometricPrecision" text-rendering="geometricPrecision" image-rendering="optimizeQuality" fill-rule="evenodd" clip-rule="evenodd" data-type="color" role="presentation" aria-hidden="true" aria-label="">
    <g>
        <path d="M3972.03 91.15c2193.97 0 3972.3 1765.93 3972.3 3944.18 0 2178.47-1778.33 3944.17-3972.3 3944.17C1778.34 7979.5 0 6213.8 0 4035.33 0 1857.08 1778.33 91.15 3972.03 91.15" fill="#2b2a29" data-color="1"></path>
        <path d="M3972.03 711.91c-1846.32 0-3348.46 1490.93-3348.46 3323.45 0 1832.51 1502.14 3323.35 3348.46 3323.35 1846.36 0 3348.47-1490.84 3348.47-3323.35S5818.39 711.91 3972.03 711.91m0 6851.15c-1958.83 0-3552.71-1582.4-3552.71-3527.7S2013.2 507.67 3972.03 507.67c1959.11 0 3552.99 1582.39 3552.99 3527.69s-1593.88 3527.7-3552.99 3527.7" fill="#fefefe" fill-rule="nonzero" data-color="2"></path>
        <path d="m6142.2 5195.93-.23-2282.46c146.24-67.51 247.96-213.43 247.96-382.76 0-233.68-193.04-423.04-430.77-423.04-237.71 0-430.63 189.36-430.63 423.04 0 179.08 113.49 331.55 273.08 393.46v978.27l-1006.7-.13v-994.07h-.37c142.33-68.84 241.04-212.72 241.04-379.45 0-233.65-192.94-423.01-430.77-423.01-237.7 0-430.63 189.36-430.63 423.01 0 166.73 98.71 310.61 241.18 379.45h-2.03v993.83H3368.01v-987.28c146.99-67.18 249.14-213.29 249.14-383.37 0-233.54-192.69-423.03-430.39-423.03-237.97 0-430.77 189.48-430.77 423.03 0 165.19 96.35 307.76 236.65 377.54v998.96h-485.93c-495.08 0-448.87 57.77-440.52-440.52v-542.85c147.33-67.28 249.85-213.52 249.85-383.6 0-233.65-193.03-423.13-430.62-423.13-237.84 0-430.54 189.48-430.54 423.13 0 164.85 95.88 307.28 235.95 377.06v987.42c-1.22 284.28 32.61 365.51 380.5 364.29h921.32v931.08c-141.01 69.44-237.97 212.34-237.97 378.03 0 233.55 192.83 423.01 430.77 423.01 237.59 0 430.43-189.46 430.43-423.01 0-167.45-99.36-311.79-242.63-380.53v-934.28h1046.39v929.89c-145.91 67.89-246.54 213.29-246.54 382.05 0 233.54 192.56 423.13 430.39 423.13s430.77-189.59 430.77-423.13c0-169.7-102.29-315.96-249.24-383.24v-930.03h1017.53l-1.18 921.45c-160.08 61.68-274.06 214.61-274.06 393.84 0 233.64 192.83 423.13 430.54 423.13 237.97 0 430.66-189.49 430.66-423.13 0-168.87-100.87-314.3-246.31-382.05" fill="#fefefe" data-color="2"></path>
        <path fill="#2b2a29" fill-rule="nonzero" d="M3196.95 2339.03v398.63h-53.94v-325.23l-34.91 34.53-31.57-34.53 73.26-73.4z" data-color="1"></path>
        <path d="M3087.98 5751.74c-.85-8.81-1.32-17.63-1.32-26.2 0-54.08 15.22-98.51 45.37-133.76 10.98-12.97 39.06-35.38 83.73-67.28 30.38-21.57 45.37-43.11 45.37-64.31 0-38.49-20.25-57.62-60.73-57.62-37.03 0-65.87 15.7-85.99 47.26l-32.88-32.75c14.65-23.93 34.91-41.56 61.1-52.63 19.42-7.76 38.46-11.81 57.77-11.81 32.28 0 59.41 9.55 80.38 28.49 22.04 19.52 32.98 45.85 32.98 79.07 0 33.35-14.89 62.52-44.76 87.77-27.99 20.36-55.98 41.09-83.96 61.68-29.91 25.96-44.91 57.19-44.91 93.15h170.55v48.95h-222.7z" fill="#2b2a29" fill-rule="nonzero" data-color="1"></path>
        <path d="M4487.97 2651.37c35.25 22.41 69.41 33.49 102.89 33.49 22.63 0 41.94-7.77 57.77-23.46 14.42-14.08 21.54-28.84 21.54-44.33 0-23.46-7.26-41.9-21.67-55.12-14.28-13.24-34.3-20.02-59.89-20.02h-30.48v-49.53h28.93c17.62 0 32.27-5.74 44.05-17.15 11.68-11.54 17.52-25.96 17.52-43.24 0-17.96-5.36-32.61-15.96-43.59-10.84-11.07-24.64-16.68-41.56-16.68-10.5 0-23.36 2.4-38.35 7.16-13.95 4.29-24.78 8.81-32.28 13.44v-49.06c23.94-13.23 47.64-19.88 71.94-19.88 29.27 0 54.29 9.99 74.78 29.87 21.34 20.73 31.93 46.12 31.93 76.23 0 35.85-13.23 63.98-40.14 84.9 41.9 19.79 62.63 54.69 62.63 104.69 0 27.04-10.94 52.06-33.08 75.14-25.49 26.58-58.01 39.91-97.67 39.91-38.11 0-72.31-10.6-102.89-31.67v-51.11z" fill="#2b2a29" fill-rule="nonzero" data-color="1"></path>
        <path d="M4615.85 5587.74v-141.72l-100.03 141.72zm120.66 49.18h-69.11v114.45h-51.55v-114.45h-159.11v-49.18l159.11-223.65h51.55v223.65h69.11z" fill="#2b2a29" fill-rule="nonzero" data-color="1"></path>
        <path d="M6048.42 2338.83v46.92h-146.95v98.47h27.85c41.79 0 75.75 12.39 101.82 36.8 24.91 23.22 37.4 52.15 37.4 86.82 0 39.44-14.27 71.57-42.97 96.12-25.99 22.52-57.42 33.82-94.59 33.82-33.55 0-64.55-5.6-91.93-17.05v-53.09c27.37 12.73 55.97 18.94 85.75 18.94 23.23 0 43.71-6.45 61.44-19.55 20.49-14.74 30.62-34.63 30.62-59.65 0-20.25-7.73-37.4-22.99-51.21-16.68-15.13-38.69-22.62-66.57-22.62h-77.88v-194.72h199.01z" fill="#2b2a29" fill-rule="nonzero" data-color="1"></path>
        <path d="M6068.53 5656.84c0 33.32-11.3 62.05-34.67 85.76-22.99 23.46-49.89 35.48-80.38 35.48-47.87 0-83.38-23.46-106.94-70.15-18-35.49-26.91-79.07-26.91-130.28 0-56.72 13.21-104.59 39.64-143.42 30.61-44.66 73.63-66.91 128.28-66.91 14.42 0 31.43 3.68 50.74 10.83v49.19c-17.99-7.16-35.03-10.84-51.21-10.84-37.17 0-66.23 18.1-87.67 54.29-18.1 30.25-27.05 64.92-27.05 103.87 24.44-25.99 52.77-38.96 85.04-38.96 30.96 0 57.42 11.21 78.62 33.83 21.78 23.09 32.51 52.02 32.51 87.29zm-49.89-.7c0-21.71-5.5-39.1-16.81-52.06-10.7-13-26.06-19.42-45.37-19.42-16.68 0-32.75 5.13-48.25 14.99-13.56 8.94-24.27 19.54-31.42 32.51 1.17 24.31 7.62 45.88 19.65 64.21 15.02 21.78 33.93 32.38 57.76 32.38 17.29 0 32.17-7.03 45.14-20.83 12.99-13.95 19.31-31.2 19.31-51.79z" fill="#2b2a29" fill-rule="nonzero" data-color="1"></path>
        <path d="M2046.08 2724.66h-57.19l-37.27-106.61c-3.34-9.04-7.86-17.48-13.33-25.36-5.47-7.62-12.16-14.27-19.65-19.88-7.63-5.6-15.97-9.79-25.12-13.1-8.95-3.24-18.47-4.66-28.73-4.66h-97.3v169.61h-52.77v-396.94h176.03c10.83 0 20.72.24 30.61.58 9.42.61 18.94 1.79 27.61 3.48 8.57 1.75 16.81 4.38 24.55 7.83 7.86 3.47 15.12 7.86 22.15 13.94 12.05 10.5 20.96 23.37 27.41 38.49 6.17 15.22 9.04 30.72 9.04 46.56 0 13.94-1.92 26.66-5.84 38.35-4.15 11.54-10.12 21.91-17.99 30.85-7.73 9.04-16.91 16.54-28.09 22.72-10.97 6.07-23.36 10.6-37.03 13.37v.94c27.75 8.81 48.82 32.75 63.57 71.81l39.33 108.03zm-278.58-217.11h117.93c16.17 0 30.11-1.21 41.89-3.71 11.82-2.36 21.44-6.31 28.97-11.68 7.5-5.47 12.97-12.5 16.68-21.31 3.31-8.94 5.09-19.65 5.09-32.27 0-22.86-7.12-39.67-21.19-50.61-14.05-10.84-35.35-16.34-63.84-16.34h-125.52v135.91z" fill="#2b2a29" fill-rule="nonzero" data-color="1"></path>
        <path d="M12258.27 2201.23c0 75.75-7.39 151.47-21.67 227.12-14.31 75.73-34.53 148.27-60.63 217.44-26.2 69.2-57.39 133.15-93.95 191.99-36.7 58.6-77.08 107.65-121.5 146.85-88.72 78.26-193.88 135.03-315.24 170.32-121.46 35.25-252.72 52.86-393.73 52.86h-297.59c-172.34 0-330.36-39.67-474.01-119.44-143.51-79.57-257.1-187.36-340.72-323.11-57.39-83.49-94.09-168.43-109.58-254.64-15.71-80.99-24.28-143.04-25.46-186.01-1.32-43.11-2.02-86.83-2.02-131.26v7.87c0-39.2 5.81-74.44 17.62-105.77 11.78-31.3 47.64-47.03 107.76-47.03h266.29c62.66 0 101.72 31.32 117.55 94.09 7.77 26.06 11.68 45.61 11.68 58.71v66.57c0 10.5.62 24.17 1.93 41.21 1.41 16.92 3.31 38.46 5.81 64.55 20.96 96.59 71.23 176.26 150.9 238.92 79.67 62.62 170.42 94.05 272.26 94.05h297.59c117.69 0 221.43-30.02 311.47-90.14 90.03-60.02 144.32-142.2 162.55-246.78 2.5-12.97 4.52-26.06 5.83-39.16 1.32-12.99 2.03-26.1 2.03-39.06 0-13.1.71-29.54 2.03-49.09 1.08-19.51 0-39.76-4.06-60.73-3.82-20.73-10.5-41.7-19.65-62.66-9.18-20.83-21.43-39.17-37.03-54.76-54.92-47.06-138.51-83.62-250.83-109.69-112.19-26.1-238.78-56.1-379.8-90.17-125.41-28.7-250.09-61.21-374.09-97.77-123.96-36.7-235.8-84.32-334.89-143.17-99.32-58.57-179.7-132.44-241.03-221.16-61.34-88.82-91.93-198.4-91.93-329.06v-54.79c0-41.8.7-84.3 2.02-127.31 1.18-43.11 8.44-90.74 21.44-143.04l-3.82 3.95c20.83-109.72 60.02-210.22 117.42-301.57 57.29-91.46 127.78-170.42 211.5-237 83.49-66.57 177-118.87 280-156.74 103.13-37.75 210.93-56.68 323.24-56.68h297.59c117.69 0 230.57 20.12 338.84 60.63 108.37 40.47 206.88 95.97 295.7 166.49 88.85 70.49 158.05 169 207.72 295.7 49.52 126.73 71.7 265.71 66.57 417.19-2.73 39.19-9.18 74.43-19.65 105.77-10.5 31.3-45.74 46.92-105.77 46.92h-258.43c-36.7 0-66.1-13-88.24-39.1-22.28-26.06-34.53-54.89-37.17-86.22-5.23-167.07-41.79-285.23-109.68-354.4-67.99-69.2-164.48-103.87-289.9-103.87h-297.59c-49.56 0-98.03 8.57-144.82 25.38-47.06 17.01-89.56 41.19-127.44 72.51-37.99 31.33-70.49 68.03-98 109.69-27.28 41.82-46.36 87.53-56.72 137.09v-3.95c-5.33 33.97-8.44 77.08-9.76 129.36-1.32 52.16 22.75 103.13 72.55 152.66 52.15 52.3 108.23 86.22 168.25 101.82l450.55 125.41c117.55 33.97 218.05 62.05 301.44 84.2 83.72 22.28 150.29 42.4 199.95 60.74 52.15 18.22 101.11 38.49 146.85 60.77 45.62 22.15 88.12 46.32 127.17 72.41 80.99 54.89 146.99 129.33 197.93 223.28 50.97 93.98 76.36 207.58 76.36 340.73z" fill="#2b2a29" fill-rule="nonzero" data-color="1"></path>
        <path d="M13182.6 560.06v998.73c99.32-52.16 205.05-108.98 317.37-170.32 112.18-61.3 217.94-122.04 317.26-182.06 23.46-13.13 54.19-31.32 91.96-54.92 37.84-23.46 75.86-48.24 113.6-74.44 37.98-25.96 72.51-51.45 103.74-76.33 31.43-24.78 52.26-45.14 62.75-60.74 52.16-83.62 67.76-167.11 47.03-250.69-20.96-86.12-73.22-129.23-156.61-129.23h-897.11zm1331.82 822.47c-67.89 44.53-126.73 83.02-176.25 115.52-49.56 32.75-92.68 59.55-129.23 80.38l-1026.34 567.96v873.44c0 39.2-5.84 74.44-17.66 105.78-11.65 31.29-47.5 47.02-107.53 47.02h-266.53c-36.55 0-65.76-13.1-88-39.2-22.15-26.06-33.35-54.89-33.35-86.22l-7.87-2882.79c0-31.32 12.39-60.02 37.27-86.12 24.78-26.19 55.4-39.29 91.95-39.29h1316.23c141.01 0 261.17 25.49 360.25 76.46 99.22 50.98 178.29 116.23 237.02 195.91 58.81 79.67 97.87 169.7 117.51 270.24 19.68 100.5 20.73 200.43 3.82 299.51-16.91 99.32-51.55 193.31-103.7 282.12-52.3 88.86-121.5 161.88-207.59 219.27z" fill="#2b2a29" fill-rule="nonzero" data-color="1"></path>
        <path d="M15728.57 560.06v853.8c52.3-25.96 113.03-56.1 182.24-90.03 69.07-33.96 142.29-71.1 219.37-111.61 76.93-40.47 153.27-80.99 229.02-121.46 75.72-40.38 144.92-79.57 207.69-117.55 62.66-37.75 116.84-73.12 162.55-105.77 45.64-32.51 75.04-59.28 88.14-80.14v3.82c15.73-23.46 23.46-50.98 23.46-82.17 0-41.79-14.51-77.04-43.11-105.77-28.69-28.7-65.39-43.11-109.68-43.11h-959.68zm991.11-521.04c88.61 0 172.94 18.36 252.61 54.92s149.45 84.91 209.61 144.93c60.02 60.12 108.23 130.64 144.69 211.5 36.66 80.89 54.89 165.79 54.89 254.51 0 148.88-35.85 271.06-107.79 366.32-71.67 95.31-163.73 180.92-275.91 256.54 41.66 109.69 82.27 216.77 121.33 321.22 39.2 104.45 78.26 211.5 117.69 321.18 62.39 172.34 126.46 345.25 191.85 518.92 65.16 173.75 131.59 347.98 199.72 522.92 20.73 52.3 18.94 92.06-5.94 119.47-24.91 27.38-63.24 41.19-115.52 41.19h-297.63c-41.93 0-70.62-9.89-86.22-29.4-15.73-19.65-28.69-42.41-39.29-68.6l-563.92-1492.25c-135.91 70.48-266.32 139.7-391.84 207.58-125.14 67.86-258.43 138.38-399.44 211.5v1018.38c0 39.2-5.7 74.44-17.62 105.78-11.78 31.29-47.64 47.02-107.79 47.02h-277.97c-36.67 0-65.83-13.1-88.11-39.2-22.15-26.06-33.35-54.89-33.35-86.22l-7.87-2882.79c0-31.32 12.39-60.02 37.27-86.12 24.78-26.19 55.39-39.29 92.06-39.29h1394.49z" fill="#2b2a29" fill-rule="nonzero" data-color="1"></path>
        <path d="M19273.35 1519.69c-23.6-62.75-43.15-114.21-58.74-154.72-15.84-40.47-26.3-71.09-31.43-92.06-5.37-20.83-11.78-41.08-19.65-60.73-7.74-19.55-14.28-39.77-19.42-60.74-13.1-39.2-27.04-80.88-41.32-125.28-14.31-44.43-31.94-96.59-52.9-156.61l-317.13 889.01 540.58-238.88zm1077.19 1527.6c0 83.49-42.03 125.32-125.52 125.32h-282.03c-41.79 0-69.78-9.89-84.06-29.44-14.54-19.51-28.11-43.69-41.21-72.52l-356.46-1030.05-963.46 426.95-215.46 603.1c-13.23 31.43-26.19 56.35-39.05 74.44-13.24 18.33-43.25 27.52-90.18 27.52h-270.34c-31.33 0-60.74-11.82-88.11-35.28-27.41-23.56-41.09-53.44-41.09-90.03 0-2.6 12.97-42.37 39.06-119.54 26.07-76.94 60.74-178.79 103.71-305.49 43.24-126.6 92.2-271.52 146.98-434.81 54.89-163.16 111.72-331.55 170.52-505.21 58.6-173.63 117.45-346.1 176.15-517.12 58.71-170.9 112.89-327.03 162.45-468.04 49.53-140.88 92.3-261.16 127.55-360.25 35.14-99.21 59.31-164.61 72.31-195.91 13.1-28.73 27.38-52.89 42.97-72.55 15.84-19.51 43.35-29.3 82.41-29.3h344.68c39.05 0 65.86 10.5 80.14 31.32 14.51 20.87 28.09 44.43 41.32 70.52l1002.64 2859.33c2.63 13.1 4.06 22.28 4.06 27.38v19.65z" fill="#2b2a29" fill-rule="nonzero" data-color="1"></path>
        <path d="M20859.59 43.04c28.69 0 56.91 3.95 84.09 11.68 27.51 7.86 47.73 36.56 60.73 86.22l509.26 2087.73c91.46-355.14 181.5-701.82 270.21-1039.95 88.85-338.23 177.58-686.09 266.43-1043.87l-3.95 11.81c13.1-75.89 56.21-113.63 129.36-113.63h187.91c67.78 0 109.58 33.96 125.41 101.82l536.53 2083.81 513.17-2087.73c12.97-49.65 32.05-78.35 56.82-86.22 24.74-7.73 52.76-11.68 84.05-11.68h219.37c15.73 0 33.97 1.32 54.8 3.95 20.96 2.6 39.8 9.04 56.95 19.51 17.01 10.5 30.58 24.17 41.19 41.08 10.27 17.15 12.86 39.91 7.73 68.6l-11.78 62.66c-44.52 234.97-95.26 471.95-152.79 710.87-57.39 239.01-117.55 478.53-180.17 718.73-62.56 240.46-125.89 479.84-189.97 718.86-63.98 238.92-123.39 473.27-178.05 703.01-10.5 23.46-20.25 43.11-29.44 58.84-9.15 15.59-39.87 23.46-92.16 23.46h-383.84c-44.33 0-74.34-8.44-89.94-25.49-15.83-16.92-26.19-37.27-31.56-60.63-46.79-172.44-91.79-346.67-135.03-522.93-43.01-176.26-86.93-350.49-131.12-522.92l-188.03-736.39-446.64 1778.32c-10.47 26.1-21.44 47.64-33.32 64.55-11.68 17.05-39.67 25.49-84.09 25.49h-387.89c-49.56 0-79.58-7.87-90.04-23.46-10.46-15.73-22.15-39.3-35.25-70.49l-701-2839.82c-2.6-7.77-4.63-17.05-6.08-27.41-1.28-10.47-1.88-23.46-1.88-39.16 0-65.16 16.91-103.13 50.97-113.64 33.93-10.36 70.49-15.59 109.69-15.59h219.37z" fill="#2b2a29" fill-rule="nonzero" data-color="1"></path>
        <path d="M26805.37 3047.26c0 31.33-12.39 60.02-37.17 86.26-24.88 26.07-55.36 39.06-92.06 39.06h-266.19c-49.76 0-86.32-19.54-109.78-58.74a315727 315727 0 0 1-342.76-511.15c-111-165.75-221.87-330.36-333-493.52-111-163.16-222.47-328.34-334.76-495.41-112.46-167.11-228.55-339.46-348.6-517.13v1950.63c0 31.33-12.52 60.02-37.27 86.26-24.91 26.07-55.63 39.06-92.06 39.06h-270.34c-36.46 0-65.16-12.99-85.99-39.06-21.1-26.23-31.32-54.92-31.32-86.26l-8.01-2882.89c0-31.32 11.81-59.92 35.38-86.12 23.46-26.1 53.48-39.2 89.94-39.2h289.98c46.93 0 82.17 20.96 105.63 62.66v-3.95l1343.52 2021.16V164.37c0-31.32 12.39-59.92 37.26-86.12 24.78-26.1 55.36-39.2 92.17-39.2h266.19c36.7 0 67.19 13.1 92.06 39.2 24.78 26.2 37.17 54.8 37.17 86.12v2882.89z" fill="#2b2a29" fill-rule="nonzero" data-color="1"></path>
        <path d="M28619.02 1519.69c-23.6-62.75-43.11-114.21-58.71-154.72-15.87-40.47-26.34-71.09-31.47-92.06-5.33-20.83-11.77-41.08-19.65-60.73-7.73-19.55-14.28-39.77-19.41-60.74-13.1-39.2-27.05-80.88-41.32-125.28-14.28-44.43-31.91-96.59-52.87-156.61l-317.17 889.01 540.59-238.88zm1077.22 1527.6c0 83.49-42.07 125.32-125.55 125.32h-282.03c-41.79 0-69.78-9.89-84.06-29.44-14.55-19.51-28.12-43.69-41.21-72.52l-356.43-1030.05-963.48 426.95-215.46 603.1c-13.2 31.43-26.19 56.35-39.06 74.44-13.23 18.33-43.24 27.52-90.13 27.52h-270.39c-31.29 0-60.73-11.82-88.11-35.28-27.37-23.56-41.08-53.44-41.08-90.03 0-2.6 12.97-42.37 39.06-119.54 26.1-76.94 60.73-178.79 103.74-305.49 43.21-126.6 92.17-271.52 146.95-434.81 54.89-163.16 111.71-331.55 170.42-505.21 58.71-173.63 117.69-346.1 176.26-517.12 58.71-170.9 112.92-327.03 162.45-468.04 49.56-140.88 92.3-261.16 127.54-360.25 35.15-99.21 59.32-164.61 72.32-195.91 13.1-28.73 27.37-52.89 42.97-72.55 15.83-19.51 43.35-29.3 82.44-29.3h344.65c39.06 0 65.87 10.5 80.14 31.32 14.52 20.87 28.12 44.43 41.32 70.52l1002.68 2859.33c2.6 13.1 4.06 22.28 4.06 27.38v19.65z" fill="#2b2a29" fill-rule="nonzero" data-color="1"></path>
        <path d="M12258.27 6901.5c0 75.76-7.39 151.38-21.67 227.13-14.31 75.72-34.53 148.27-60.63 217.44-26.2 69.07-57.39 133.15-93.95 191.98-36.7 58.71-77.08 107.66-121.5 146.86-88.72 78.25-193.88 135.03-315.24 170.32-121.46 35.34-252.72 52.86-393.73 52.86h-297.59c-172.34 0-330.36-39.77-474.01-119.44-143.51-79.67-257.1-187.36-340.72-323.24-57.39-83.49-94.09-168.29-109.58-254.51-15.71-80.99-24.28-143.04-25.46-186.01-1.32-43.11-2.02-86.83-2.02-131.12v7.73c0-39.16 5.81-74.43 17.62-105.86 11.78-31.19 47.64-46.92 107.76-46.92h266.29c62.66 0 101.72 31.32 117.55 94.09 7.77 26.1 11.68 45.61 11.68 58.7v66.58c0 10.36.62 24.17 1.93 41.08 1.41 17.05 3.31 38.59 5.81 64.69 20.96 96.68 71.23 176.26 150.9 238.91 79.67 62.63 170.42 94.09 272.26 94.09h297.59c117.69 0 221.43-30.01 311.47-90.3 90.03-60.02 144.32-142.2 162.55-246.65 2.5-12.97 4.52-26.07 5.83-39.16 1.32-13 2.03-26.1 2.03-39.06 0-13.24.71-29.44 2.03-48.95 1.08-19.65 0-39.91-4.06-60.74-3.82-20.96-10.5-41.82-19.65-62.79-9.18-20.83-21.43-39.16-37.03-54.75-54.92-47.07-138.51-83.62-250.83-109.69-112.19-26.1-238.78-56.1-379.8-90.17-125.41-28.59-250.09-61.34-374.09-97.77-123.96-36.7-235.8-84.2-334.89-143.18-99.32-58.7-179.7-132.4-241.03-221.16-61.34-88.72-91.93-198.39-91.93-329.15v-54.79c0-41.7.7-84.2 2.02-127.2 1.18-43.12 8.44-90.75 21.44-143.04l-3.82 3.95c20.83-109.69 60.02-210.22 117.42-301.58 57.29-91.45 127.78-170.42 211.5-236.99 83.49-66.57 177-118.87 280-156.75 103.13-37.74 210.93-56.68 323.24-56.68h297.59c117.69 0 230.57 20.26 338.84 60.63 108.37 40.48 206.88 95.98 295.7 166.5 88.85 70.49 158.05 169.1 207.72 295.69 49.52 126.74 71.7 265.82 66.57 417.19-2.73 39.06-9.18 74.44-19.65 105.77-10.5 31.3-45.74 46.93-105.77 46.93h-258.43c-36.7 0-66.1-13-88.24-39.2-22.28-25.96-34.53-54.89-37.17-86.12-5.23-167.08-41.79-285.33-109.68-354.4-67.99-69.2-164.48-103.84-289.9-103.84h-297.59c-49.56 0-98.03 8.44-144.82 25.36-47.06 17.01-89.56 41.21-127.44 72.51-37.99 31.32-70.49 68.02-98 109.69-27.28 41.82-46.36 87.53-56.72 137.09v-3.95c-5.33 33.96-8.44 77.08-9.76 129.23-1.32 52.3 22.75 103.27 72.55 152.8 52.15 52.29 108.23 86.22 168.25 101.95l450.55 125.28c117.55 33.96 218.05 62.05 301.44 84.2 83.72 22.17 150.29 42.4 199.95 60.77 52.15 18.33 101.11 38.45 146.85 60.6 45.62 22.28 88.12 46.44 127.17 72.54 80.99 54.89 146.99 129.33 197.93 223.29 50.97 93.98 76.36 207.58 76.36 340.72z" fill="#2b2a29" fill-rule="nonzero" data-color="1"></path>
        <path d="m13182.6 5957.46 1323.96-1225.96 7.86 11.82c2.6-2.63 16.92-3.95 42.98-3.95h364.43c36.46 0 67.89 11.68 93.98 35.24 26.07 23.46 39.06 53.61 39.06 90.04 0 36.7-15.6 68.02-46.83 94.09l-43.11 50.87-1089 1022.29 1159.52 1598.12 31.2 43.11c28.83 36.56 38.45 69.82 29.4 99.83-9.28 30.01-27.99 55.5-56.79 76.43-23.46 15.73-48.38 23.46-74.34 23.46h-329.15c-23.46 0-44.33-4.53-62.66-13.68-18.33-9.18-36.56-28.11-54.79-56.81l3.95 7.87-1034.25-1425.82c-54.66 52.29-105.03 99.92-150.63 143.03-45.61 43.01-97.33 90.74-154.82 142.91v1077.22c0 83.49-43.01 125.28-129.24 125.28h-262.48c-80.99 0-121.36-41.79-121.36-125.28l-7.87-2882.93c0-83.49 43.11-125.28 129.23-125.28h262.48c86.23 0 129.24 41.79 129.24 125.28v1092.81z" fill="#2b2a29" fill-rule="nonzero" data-color="1"></path>
        <path d="M15932.17 5260.34v853.81c52.16-25.96 112.89-56.1 182.09-90.03 69.18-33.93 142.44-71.1 219.37-111.61 77.04-40.47 153.27-80.95 229.12-121.46 75.76-40.47 144.96-79.54 207.58-117.42 62.66-38.01 116.98-73.26 162.59-105.87 45.61-32.54 75.01-59.31 88.24-80.28v3.92c15.6-23.46 23.46-50.85 23.46-82.17 0-41.8-14.42-76.94-43.11-105.87-28.84-28.59-65.29-43.01-109.69-43.01h-959.67zm990.96-520.9c88.62 0 172.95 18.22 252.62 54.79 79.67 36.56 149.59 84.91 209.61 144.92 60.02 60.13 108.23 130.52 144.82 211.5 36.67 80.99 54.89 165.79 54.89 254.51 0 148.88-35.99 270.95-107.65 366.36-71.94 95.26-163.91 180.88-276.19 256.5 41.8 109.69 82.41 216.87 121.47 321.32 39.2 104.45 78.25 211.4 117.55 321.09 62.51 172.34 126.6 345.25 191.85 518.91 65.29 173.63 131.73 347.99 199.72 522.93 20.86 52.15 18.94 92.06-5.94 119.47-24.78 27.37-63.13 41.19-115.39 41.19h-297.63c-41.93 0-70.52-9.89-86.22-29.4-15.87-19.65-28.73-42.41-39.2-68.6l-563.92-1492.26c-135.88 70.49-266.52 139.7-391.94 207.46-125.18 67.89-258.33 138.51-399.44 211.63v1018.38c0 39.06-5.84 74.31-17.62 105.77-11.82 31.43-47.77 47.03-107.79 47.03h-278.08c-36.56 0-65.86-13.1-88.15-39.29-22.04-25.96-33.22-54.8-33.22-85.99l-7.86-2882.93c0-31.33 12.39-60.02 37.26-86.23 24.79-26.1 55.4-39.05 91.96-39.05h1394.45z" fill="#2b2a29" fill-rule="nonzero" data-color="1"></path>
        <path d="M18117.73 7872.86c-60.02 0-96.58-16.3-109.54-48.91-13.1-32.65-19.65-68.5-19.65-107.7v-168.49c0-20.86 3.31-39.19 9.85-54.79 6.45-15.73 14.89-30.01 25.49-43.11l1601.94-2181.72h-1398.27c-68.02 0-111.14-9.15-129.33-27.48-18.36-18.13-27.41-61.25-27.41-129.23v-219.27c0-39.16 5.13-74.43 15.73-105.73 10.23-31.47 49.53-47.06 117.42-47.06h1993.64c36.56 0 66.71 13.09 90.17 39.19 23.46 26.07 35.25 54.89 35.25 86.09v246.78c0 13.09-2.03 27.37-5.7 43.11-4.06 15.73-12.63 30.11-25.49 43.11l-1555.28 2146.58h1484.66c67.89 0 110.39 9.04 127.17 27.28 17.05 18.33 25.49 61.44 25.49 129.19v215.55c0 39.2-6.42 75.05-19.66 107.7-12.86 32.61-49.52 48.91-109.54 48.91h-2126.93z" fill="#2b2a29" fill-rule="nonzero" data-color="1"></path>
        <path d="M22567.39 4790.25c26.1-33.83 61.34-50.85 105.77-50.85h352.61c83.49 0 125.32 41.79 125.32 125.28 0 20.96-5.37 40.48-15.73 58.84-10.47 18.19-20.83 33.83-31.32 47.03 0 2.5-.71 3.82-2.03 3.82-1.18 0-1.89 1.32-1.89 3.95l-3.95 3.78-1006.56 1437.6v1300.54c0 39.06-5.36 74.3-15.72 105.63-10.37 31.43-48.35 47.02-113.64 47.02h-266.29c-60.12 0-95.97-15.59-107.66-47.02-11.77-31.33-17.62-66.57-17.62-105.63v-1308.4l-1034.11-1476.66c-7.83-13.1-12.49-24.75-13.8-35.25-1.32-10.36-1.8-23.46-1.8-39.16 0-80.89 40.38-121.37 121.37-121.37h348.6c46.92 0 84.8 19.51 113.6 58.57l732.44 1085.08c203.77-315.95 366.93-564.51 489.61-746.11 122.68-181.39 206.13-299.64 250.56-354.44l-7.73 7.74z" fill="#2b2a29" fill-rule="nonzero" data-color="1"></path>
        <path d="M25818.29 7747.61c0 31.33-12.25 60.02-37.13 86.12-24.91 26.07-55.4 39.2-92.06 39.2h-266.2c-49.76 0-86.32-19.68-109.78-58.84-117.45-174.84-231.76-345.25-342.75-511.04-111.01-165.79-221.77-330.37-333.01-493.67a119955 119955 0 0 1-334.78-495.41 332613 332613 0 0 0-348.46-516.98v1950.63c0 31.33-12.63 60.02-37.41 86.12-24.88 26.07-55.5 39.2-92.06 39.2h-270.2c-36.56 0-65.26-13.13-86.12-39.2-20.96-26.1-31.3-54.79-31.3-86.12l-7.87-2882.93c0-31.3 11.65-60.02 35.25-86.22 23.46-25.96 53.48-39.06 90.04-39.06h289.89c47.02 0 82.27 20.96 105.63 62.66v-4.06l1343.61 2021.16V4864.68c0-31.3 12.39-60.02 37.17-86.22 24.75-25.96 55.37-39.06 92.17-39.06h266.2c36.66 0 67.15 13.1 92.06 39.06 24.88 26.19 37.13 54.92 37.13 86.22v2882.93z" fill="#2b2a29" fill-rule="nonzero" data-color="1"></path>
        <path d="M26817.22 7747.61c0 31.33-12.49 60.02-37.26 86.12-24.78 26.07-55.51 39.2-91.93 39.2h-266.44c-36.66 0-65.25-13.13-86.22-39.2-20.96-26.1-31.32-54.79-31.32-86.12l-7.74-2882.93c0-31.3 11.69-60.02 35.25-86.22 23.46-25.96 53.37-39.06 90.03-39.06h266.44c36.42 0 67.15 13.1 91.93 39.06 24.78 26.19 37.26 54.92 37.26 86.22z" fill="#2b2a29" fill-rule="nonzero" data-color="1"></path>
        <path d="M28630.63 6219.98c-23.57-62.66-43.11-114.21-58.71-154.72-15.83-40.47-26.34-71.1-31.43-92.06-5.36-20.83-11.81-41.08-19.68-60.73-7.73-19.55-14.27-39.77-19.41-60.74-13.1-39.2-27.01-80.85-41.32-125.41-14.28-44.29-31.81-96.45-52.86-156.61l-317.14 889.15zm1077.22 1527.63c0 83.49-42.03 125.28-125.52 125.28h-282.03c-41.79 0-69.77-9.76-84.09-29.3-14.51-19.65-28.09-43.72-41.19-72.65l-356.46-1030.05-963.48 426.95-215.46 603.1c-13.2 31.43-26.19 56.21-39.05 74.44-13.21 18.33-43.21 27.51-90.14 27.51h-270.35c-31.32 0-60.73-11.77-88.14-35.24-27.38-23.6-41.09-53.48-41.09-90.04 0-2.63 12.99-42.4 39.06-119.57 26.19-76.94 60.74-178.89 103.74-305.49 43.24-126.73 92.17-271.53 146.95-434.82 54.93-163.15 111.71-331.55 170.55-505.2 58.61-173.63 117.55-345.96 176.16-517.09 58.7-170.92 112.89-327.06 162.54-468.07 49.56-140.98 92.17-261.16 127.44-360.38 35.11-99.18 59.31-164.48 72.28-195.77 13.1-28.73 27.38-52.9 43.01-72.55 15.83-19.51 43.35-29.3 82.4-29.3h344.65c39.06 0 66 10.5 80.29 31.32 14.41 20.96 27.98 44.43 41.21 70.52l1002.65 2859.33c2.62 13.1 4.05 22.15 4.05 27.38v19.68z" fill="#2b2a29" fill-rule="nonzero" data-color="1"></path>
    </g>
</svg>