<?xml version="1.0" encoding="UTF-8"?>
<svg id="Layer_2" data-name="Layer 2" xmlns="http://www.w3.org/2000/svg" viewBox="0 0 312.39 310.19">
  <defs>
    <style>
      .cls-1, .cls-2 {
        fill: #2b2a29;
      }

      .cls-3, .cls-2 {
        fill-rule: evenodd;
      }

      .cls-3, .cls-4 {
        fill: #fefefe;
      }
    </style>
  </defs>
  <g id="Layer_1-2" data-name="Layer 1">
    <path class="cls-2" d="M156.19,0c86.27,0,156.2,69.44,156.2,155.09s-69.93,155.09-156.2,155.09S0,240.75,0,155.09,69.93,0,156.19,0"/>
    <path class="cls-4" d="M156.19,24.41c-72.6,0-131.67,58.63-131.67,130.68s59.07,130.68,131.67,130.68,131.67-58.62,131.67-130.68S228.79,24.41,156.19,24.41M156.19,293.81c-77.03,0-139.7-62.22-139.7-138.72S79.16,16.38,156.19,16.38s139.71,62.22,139.71,138.72-62.67,138.72-139.71,138.72"/>
    <path class="cls-3" d="M241.52,200.73v-89.75c5.74-2.65,9.74-8.39,9.74-15.05,0-9.19-7.59-16.63-16.94-16.63s-16.93,7.45-16.93,16.63c0,7.04,4.46,13.04,10.74,15.47v38.47h-39.59v-39.09h-.01c5.6-2.71,9.48-8.36,9.48-14.92,0-9.19-7.59-16.63-16.94-16.63s-16.93,7.45-16.93,16.63c0,6.56,3.88,12.21,9.48,14.92h-.08v39.08h-41.1v-38.82c5.78-2.64,9.8-8.39,9.8-15.07,0-9.18-7.58-16.63-16.92-16.63s-16.94,7.45-16.94,16.63c0,6.5,3.79,12.1,9.31,14.85v39.28h-19.11c-19.47,0-17.65,2.27-17.32-17.32v-21.35c5.79-2.65,9.82-8.4,9.82-15.08,0-9.19-7.59-16.64-16.93-16.64s-16.93,7.45-16.93,16.64c0,6.48,3.77,12.08,9.28,14.83v38.83c-.05,11.18,1.28,14.37,14.96,14.32h36.23v36.61c-5.54,2.73-9.36,8.35-9.36,14.86,0,9.18,7.58,16.63,16.94,16.63s16.93-7.45,16.93-16.63c0-6.58-3.91-12.26-9.54-14.96v-36.74h41.15v36.57c-5.74,2.67-9.69,8.39-9.69,15.02,0,9.18,7.57,16.64,16.92,16.64s16.94-7.46,16.94-16.64c0-6.67-4.02-12.42-9.8-15.07v-36.57h40.01l-.05,36.23c-6.29,2.43-10.78,8.44-10.78,15.49,0,9.19,7.58,16.64,16.93,16.64s16.93-7.45,16.93-16.64c0-6.64-3.97-12.36-9.69-15.02"/>
    <path class="cls-1" d="M125.71,88.39v15.67h-2.12v-12.79l-1.37,1.36-1.24-1.36,2.88-2.89h1.85Z"/>
    <path class="cls-1" d="M121.43,222.59c-.03-.35-.05-.69-.05-1.03,0-2.13.6-3.87,1.78-5.26.43-.51,1.54-1.39,3.29-2.65,1.19-.85,1.78-1.7,1.78-2.53,0-1.51-.8-2.27-2.39-2.27-1.46,0-2.59.62-3.38,1.86l-1.29-1.29c.58-.94,1.37-1.63,2.4-2.07.76-.31,1.51-.46,2.27-.46,1.27,0,2.34.38,3.16,1.12.87.77,1.3,1.8,1.3,3.11s-.59,2.46-1.76,3.45c-1.1.8-2.2,1.62-3.3,2.43-1.18,1.02-1.77,2.25-1.77,3.66h6.71v1.92h-8.76Z"/>
    <path class="cls-1" d="M176.48,100.67c1.39.88,2.73,1.32,4.05,1.32.89,0,1.65-.31,2.27-.92.57-.55.85-1.13.85-1.74,0-.92-.29-1.65-.85-2.17-.56-.52-1.35-.79-2.35-.79h-1.2v-1.95h1.14c.69,0,1.27-.23,1.73-.67.46-.45.69-1.02.69-1.7s-.21-1.28-.63-1.71c-.43-.44-.97-.66-1.63-.66-.41,0-.92.09-1.51.28-.55.17-.97.35-1.27.53v-1.93c.94-.52,1.87-.78,2.83-.78,1.15,0,2.13.39,2.94,1.17.84.82,1.26,1.81,1.26,3,0,1.41-.52,2.52-1.58,3.34,1.65.78,2.46,2.15,2.46,4.12,0,1.06-.43,2.05-1.3,2.95-1,1.05-2.28,1.57-3.84,1.57s-2.84-.42-4.05-1.25v-2.01h0Z"/>
    <path class="cls-1" d="M181.5,216.14v-5.57l-3.93,5.57h3.93ZM186.25,218.07h-2.72v4.5h-2.03v-4.5h-6.26v-1.93l6.26-8.79h2.03v8.79h2.72v1.93Z"/>
    <path class="cls-1" d="M237.84,88.38v1.84h-5.78v3.87h1.1c1.64,0,2.98.49,4,1.45.98.91,1.47,2.05,1.47,3.41,0,1.55-.56,2.81-1.69,3.78-1.02.89-2.26,1.33-3.72,1.33-1.32,0-2.54-.22-3.61-.67v-2.09c1.08.5,2.2.74,3.37.74.91,0,1.72-.25,2.42-.77.81-.58,1.2-1.36,1.2-2.35,0-.8-.3-1.47-.9-2.01-.66-.59-1.52-.89-2.62-.89h-3.06v-7.66h7.83,0Z"/>
    <path class="cls-1" d="M238.63,218.85c0,1.31-.44,2.44-1.36,3.37-.9.92-1.96,1.4-3.16,1.4-1.88,0-3.28-.92-4.21-2.76-.71-1.4-1.06-3.11-1.06-5.12,0-2.23.52-4.11,1.56-5.64,1.2-1.76,2.9-2.63,5.04-2.63.57,0,1.24.14,2,.43v1.93c-.71-.28-1.38-.43-2.01-.43-1.46,0-2.6.71-3.45,2.13-.71,1.19-1.06,2.55-1.06,4.08.96-1.02,2.08-1.53,3.34-1.53s2.26.44,3.09,1.33c.86.91,1.28,2.05,1.28,3.43h0ZM236.66,218.83c0-.85-.22-1.54-.66-2.05-.42-.51-1.02-.76-1.78-.76-.66,0-1.29.2-1.9.59-.53.35-.95.77-1.24,1.28.05.96.3,1.8.77,2.52.59.86,1.33,1.27,2.27,1.27.68,0,1.26-.28,1.77-.82.51-.55.76-1.23.76-2.04h0Z"/>
    <path class="cls-1" d="M80.46,103.55h-2.25l-1.47-4.19c-.13-.36-.31-.69-.52-1-.22-.3-.48-.56-.77-.78-.3-.22-.63-.38-.99-.52-.35-.13-.73-.18-1.13-.18h-3.83v6.67h-2.08v-15.61h6.92c.43,0,.81,0,1.2.02.37.02.74.07,1.09.14.34.07.66.17.97.31.31.14.59.31.87.55.47.41.82.92,1.08,1.51.24.6.36,1.21.36,1.83,0,.55-.08,1.05-.23,1.51-.16.45-.4.86-.71,1.21-.3.36-.66.65-1.1.89-.43.24-.92.42-1.46.53v.04c1.09.35,1.92,1.29,2.5,2.82l1.55,4.25h0ZM69.5,95.02h4.64c.64,0,1.18-.05,1.65-.15.46-.09.84-.25,1.14-.46.29-.22.51-.49.66-.84.13-.35.2-.77.2-1.27,0-.9-.28-1.56-.83-1.99-.55-.43-1.39-.64-2.51-.64h-4.94v5.34h0Z"/>
  </g>
</svg>